<svg width="16" height="16" viewBox="0 0 16 16" fill="none" xmlns="http://www.w3.org/2000/svg">
  <path fill-rule="evenodd" clip-rule="evenodd" d="M2.86195 4.19526C3.1223 3.93491 3.54441 3.93491 3.80476 4.19526L8.00002 8.39052L12.1953 4.19526C12.4556 3.93491 12.8777 3.93491 13.1381 4.19526C13.3984 4.45561 13.3984 4.87772 13.1381 5.13807L8.47142 9.80474C8.21108 10.0651 7.78896 10.0651 7.52862 9.80474L2.86195 5.13807C2.6016 4.87772 2.6016 4.45561 2.86195 4.19526Z" fill="#DCDCDC"/>
  <path fill-rule="evenodd" clip-rule="evenodd" d="M2 2.66668C1.63181 2.66668 1.33333 2.96515 1.33333 3.33334V12.6667C1.33333 13.0349 1.63181 13.3333 2 13.3333H14C14.3682 13.3333 14.6667 13.0349 14.6667 12.6667V3.33334C14.6667 2.96515 14.3682 2.66668 14 2.66668H2ZM0 3.33334C0 2.22877 0.895431 1.33334 2 1.33334H14C15.1046 1.33334 16 2.22877 16 3.33334V12.6667C16 13.7712 15.1046 14.6667 14 14.6667H2C0.895431 14.6667 0 13.7712 0 12.6667V3.33334Z" fill="#DCDCDC"/>
  <path fill-rule="evenodd" clip-rule="evenodd" d="M5.13809 9.52858C5.39844 9.78892 5.39844 10.211 5.13809 10.4714L3.80476 11.8047C3.54441 12.0651 3.1223 12.0651 2.86195 11.8047C2.6016 11.5444 2.6016 11.1223 2.86195 10.8619L4.19528 9.52858C4.45563 9.26823 4.87774 9.26823 5.13809 9.52858Z" fill="#DCDCDC"/>
  <path fill-rule="evenodd" clip-rule="evenodd" d="M10.8619 9.52858C11.1223 9.26823 11.5444 9.26823 11.8048 9.52858L13.1381 10.8619C13.3984 11.1223 13.3984 11.5444 13.1381 11.8047C12.8777 12.0651 12.4556 12.0651 12.1953 11.8047L10.8619 10.4714C10.6016 10.211 10.6016 9.78892 10.8619 9.52858Z" fill="#DCDCDC"/>
</svg>
