<svg width="320" height="40" viewBox="0 0 320 40" fill="none" xmlns="http://www.w3.org/2000/svg">
<path d="M21.0986 0H26.8123V12.5244H38.5604V0H44.283V30.0978H38.5604V17.4933H26.8123V30.0978H21.0986V0Z" fill="black"/>
<path d="M58.8034 8.66675C61.9855 8.66675 64.4457 10.0356 65.5242 11.9556H65.6936C65.6226 11.345 65.5958 10.7301 65.6134 10.1156V9.30675H70.7566V30.0979H65.6134V29.1379C65.6067 28.4939 65.6335 27.8501 65.6936 27.209H65.5242C64.3209 29.3779 61.7449 30.7645 58.5627 30.7645C52.6084 30.7467 48.4279 26.2045 48.4279 19.7067C48.4279 13.209 52.8847 8.66675 58.8034 8.66675ZM65.4084 19.6267C65.4084 16.0712 63.0373 13.5645 59.7304 13.5645C56.4234 13.5645 54.0969 16.0534 54.0969 19.6267C54.0969 23.2001 56.4502 25.769 59.7304 25.769C63.0106 25.769 65.4084 23.2356 65.4084 19.6267Z" fill="black"/>
<path d="M86.0524 30.7467C79.4563 30.7467 74.8657 26.0978 74.8657 19.7155C74.8657 13.3333 79.4919 8.67554 85.9721 8.67554C92.0869 8.67554 96.1961 13.2889 96.1961 19.7155C96.2034 20.312 96.1497 20.9077 96.0356 21.4933H80.7042C80.8993 22.7453 81.5554 23.8799 82.5443 24.6754C83.5332 25.4709 84.784 25.8703 86.0524 25.7955C87.0608 25.8568 88.0686 25.6643 88.9829 25.2356C89.8972 24.8069 90.6887 24.1558 91.2847 23.3422L94.5381 26.7555C93.552 28.0547 92.265 29.0963 90.7872 29.7913C89.3095 30.4864 87.6849 30.8142 86.0524 30.7467ZM80.7042 17.9111H90.6785C90.5792 16.7127 90.0266 15.5969 89.1328 14.7897C88.2389 13.9826 87.0708 13.5445 85.8652 13.5644C84.6176 13.516 83.3968 13.934 82.4421 14.7364C81.4874 15.5388 80.8676 16.6678 80.7042 17.9022V17.9111Z" fill="black"/>
<path d="M110.235 9.30664V14.2489H105.778V30.0977H100.145V9.30664H110.235Z" fill="black"/>
<path d="M113.818 0H119.452V25.2H123.802V30.0978H113.818V0Z" fill="black"/>
<path d="M136.718 30.7467C130.121 30.7467 125.531 26.0979 125.531 19.7156C125.531 13.3334 130.157 8.66675 136.673 8.66675C142.788 8.66675 146.897 13.2801 146.897 19.7067C146.904 20.3032 146.851 20.8989 146.737 21.4845H131.405C131.6 22.7365 132.256 23.8711 133.245 24.6666C134.234 25.4621 135.485 25.8615 136.753 25.7867C137.769 25.8538 138.786 25.6623 139.707 25.23C140.629 24.7978 141.425 24.139 142.021 23.3156L145.275 26.729C144.285 28.0438 142.988 29.0972 141.496 29.7975C140.005 30.4978 138.364 30.8237 136.718 30.7467ZM131.369 17.9112H141.344C141.244 16.7121 140.69 15.5959 139.794 14.7899C138.898 13.984 137.728 13.549 136.521 13.5734C135.277 13.5291 134.061 13.9476 133.109 14.7476C132.157 15.5476 131.537 16.672 131.369 17.9023V17.9112Z" fill="black"/>
<path d="M179.503 30.0976H173.861V16.6132C173.861 15.8211 173.545 15.0614 172.984 14.5013C172.422 13.9412 171.66 13.6265 170.866 13.6265C170.071 13.6265 169.31 13.9412 168.748 14.5013C168.186 15.0614 167.871 15.8211 167.871 16.6132V30.0976H162.237V16.6132C162.252 16.2119 162.184 15.8118 162.038 15.4376C161.892 15.0634 161.67 14.723 161.387 14.4374C161.104 14.1517 160.766 13.9269 160.392 13.7768C160.019 13.6266 159.618 13.5543 159.216 13.5643C158.819 13.5614 158.426 13.6392 158.061 13.793C157.695 13.9469 157.365 14.1734 157.091 14.4588C156.816 14.7442 156.603 15.0825 156.464 15.4529C156.325 15.8234 156.264 16.2182 156.283 16.6132V30.0976H150.65V16.6932C150.65 11.9554 154.429 8.69318 159.216 8.69318C160.349 8.64576 161.478 8.86202 162.513 9.32486C163.548 9.7877 164.461 10.4844 165.179 11.3598C165.92 10.4932 166.848 9.80367 167.892 9.34212C168.936 8.88058 170.072 8.65881 171.213 8.69318C176.045 8.69318 179.548 11.9821 179.548 16.6932L179.503 30.0976Z" fill="black"/>
<path d="M201.743 14.5689C200.962 13.4011 199.901 12.4473 198.655 11.795C197.409 11.1428 196.019 10.8128 194.612 10.8355C189.584 10.8355 185.876 14.6844 185.876 19.8222C185.876 24.96 189.584 28.8177 194.612 28.8177C196.079 28.8225 197.524 28.4565 198.812 27.7539C200.099 27.0514 201.187 26.0351 201.974 24.8L203.267 26.0889C202.334 27.5288 201.051 28.7107 199.538 29.5249C198.025 30.3391 196.331 30.7593 194.612 30.7466C193.167 30.7851 191.731 30.5284 190.39 29.9924C189.049 29.4564 187.832 28.6524 186.814 27.6299C185.796 26.6074 184.999 25.3881 184.471 24.0469C183.944 22.7057 183.697 21.271 183.746 19.8311C183.717 18.3981 183.978 16.9741 184.513 15.6439C185.048 14.3138 185.847 13.1049 186.861 12.0894C187.875 11.0738 189.084 10.2725 190.416 9.73335C191.748 9.19415 193.175 8.9281 194.612 8.95108C196.269 8.93613 197.905 9.31829 199.384 10.0654C200.862 10.8125 202.139 11.9028 203.106 13.2444L201.743 14.5689Z" fill="#5D5D5D"/>
<path d="M216.807 8.95097C221.264 8.95097 224.695 11.3954 225.658 14.7288H225.738C225.738 14.0088 225.658 13.3243 225.658 12.2754V9.60875H227.592V30.0976H225.658V27.0932C225.658 26.2043 225.703 25.4399 225.738 24.6843H225.658C224.651 28.2932 221.112 30.7021 216.744 30.7376C210.389 30.7376 206.048 26.0443 206.048 19.8221C205.998 18.3931 206.241 16.9689 206.762 15.6368C207.283 14.3046 208.071 13.0926 209.079 12.0749C210.086 11.0572 211.291 10.2552 212.619 9.71803C213.948 9.18087 215.373 8.91986 216.807 8.95097ZM225.622 19.8221C225.622 14.6843 221.994 10.8354 216.887 10.8354C215.714 10.8286 214.553 11.0585 213.471 11.5113C212.39 11.964 211.412 12.6302 210.596 13.4698C209.78 14.3094 209.143 15.305 208.723 16.3967C208.302 17.4884 208.108 18.6536 208.152 19.8221C208.108 20.9918 208.303 22.1581 208.723 23.2509C209.144 24.3436 209.782 25.3402 210.599 26.1806C211.416 27.0211 212.395 27.6879 213.477 28.1411C214.559 28.5943 215.722 28.8244 216.896 28.8176C221.994 28.8176 225.622 24.9599 225.622 19.8221Z" fill="#5D5D5D"/>
<path d="M245.419 30.7467C241.275 30.7467 237.7 28.6222 236.613 25.1734H236.488C236.58 25.973 236.621 26.7775 236.613 27.5822V39.3334H234.518V9.59113H236.488V12.2578C236.495 13.0505 236.456 13.8429 236.372 14.6311H236.488C237.7 11.2622 241.239 8.93335 245.544 8.93335C251.623 8.93335 256.125 13.5822 256.125 19.8045C256.125 26.0267 251.579 30.7467 245.419 30.7467ZM236.506 19.8222C236.506 25.0045 240.169 28.8178 245.232 28.8178C246.406 28.8272 247.57 28.5987 248.653 28.1463C249.736 27.6939 250.715 27.0269 251.532 26.1859C252.349 25.3448 252.986 24.3471 253.405 23.2532C253.823 22.1594 254.015 20.9921 253.968 19.8222C254.011 18.6537 253.817 17.4886 253.397 16.3969C252.976 15.3052 252.339 14.3096 251.523 13.47C250.707 12.6304 249.729 11.9642 248.648 11.5114C247.567 11.0587 246.405 10.8288 245.232 10.8356C240.152 10.8356 236.506 14.6845 236.506 19.8222Z" fill="#5D5D5D"/>
<path d="M260.876 3.73341C260.874 3.44762 260.957 3.16771 261.115 2.92889C261.272 2.69008 261.497 2.50302 261.76 2.39126C262.024 2.2795 262.315 2.24802 262.597 2.30079C262.879 2.35356 263.138 2.48822 263.343 2.68783C263.548 2.88744 263.69 3.14308 263.75 3.42259C263.809 3.7021 263.785 3.99299 263.679 4.25868C263.574 4.52436 263.392 4.75296 263.156 4.91573C262.921 5.07849 262.642 5.16815 262.355 5.17341C262.161 5.18464 261.967 5.15536 261.784 5.08745C261.602 5.01953 261.436 4.91446 261.297 4.77896C261.158 4.64346 261.048 4.48049 260.976 4.30047C260.903 4.12044 260.869 3.92731 260.876 3.73341ZM261.277 30.0979V9.59119H263.372V30.0979H261.277Z" fill="#5D5D5D"/>
<path d="M270.814 11.4399H268.238V9.59101H270.814V4.00879H272.909V9.59101H279.906V11.4399H272.909V28.2132H279.291V30.0977H270.797L270.814 11.4399Z" fill="#5D5D5D"/>
<path d="M292.751 8.9511C297.208 8.9511 300.64 11.3955 301.602 14.7289H301.682C301.638 14.0089 301.602 13.3244 301.602 12.2755V9.60888H303.536V30.0978H301.575V27.0933C301.575 26.2044 301.575 25.44 301.656 24.6844H301.575C300.568 28.2933 297.03 30.7022 292.662 30.7378C286.306 30.7378 281.965 26.0444 281.965 19.8222C281.915 18.3909 282.159 16.9644 282.682 15.6305C283.204 14.2965 283.995 13.0832 285.005 12.0651C286.015 11.047 287.223 10.2456 288.555 9.71009C289.887 9.17458 291.315 8.9163 292.751 8.9511ZM301.575 19.8222C301.575 14.6844 297.957 10.8355 292.849 10.8355C291.676 10.8287 290.515 11.0586 289.434 11.5114C288.352 11.9641 287.374 12.6304 286.558 13.47C285.742 14.3096 285.105 15.3052 284.685 16.3968C284.265 17.4885 284.07 18.6537 284.114 19.8222C284.069 20.9915 284.262 22.1576 284.682 23.2503C285.102 24.343 285.739 25.3397 286.555 26.1803C287.371 27.0208 288.35 27.6879 289.431 28.1412C290.513 28.5944 291.676 28.8246 292.849 28.8178C297.939 28.8178 301.575 24.96 301.575 19.8222Z" fill="#5D5D5D"/>
<path d="M310.418 0H312.504V28.2133H319.189V30.0978H310.418V0Z" fill="#5D5D5D"/>
<path d="M5.80279 14.9246H0V20.6846H5.80279V14.9246Z" fill="#0099CD"/>
<path d="M15.2691 24.3022H9.46629V30.0622H15.2691V24.3022Z" fill="#0099CD"/>
<path d="M5.80279 24.3022H0V30.0622H5.80279V24.3022Z" fill="#0099CD"/>
<path d="M15.2691 14.9246H9.46629V20.6846H15.2691V14.9246Z" fill="#0099CD"/>
</svg>
