<svg width="320" height="40" viewBox="0 0 320 40" fill="none" xmlns="http://www.w3.org/2000/svg">
<path d="M21.0986 0H26.8123V12.5244H38.5605V0H44.283V30.0978H38.5605V17.4933H26.8123V30.0978H21.0986V0Z" fill="white"/>
<path d="M58.8033 8.66667C61.9855 8.66667 64.4457 10.0356 65.5242 11.9556H65.6936C65.6226 11.3449 65.5958 10.73 65.6134 10.1156V9.30667H70.7565V30.0978H65.6134V29.1378C65.6067 28.4939 65.6335 27.85 65.6936 27.2089H65.5242C64.3209 29.3778 61.7449 30.7644 58.5627 30.7644C52.6084 30.7467 48.4279 26.2045 48.4279 19.7067C48.4279 13.2089 52.8847 8.66667 58.8033 8.66667ZM65.4084 19.6267C65.4084 16.0711 63.0373 13.5644 59.7304 13.5644C56.4234 13.5644 54.0969 16.0533 54.0969 19.6267C54.0969 23.2 56.4501 25.7689 59.7304 25.7689C63.0106 25.7689 65.4084 23.2356 65.4084 19.6267Z" fill="white"/>
<path d="M86.0524 30.7467C79.4563 30.7467 74.8657 26.0978 74.8657 19.7156C74.8657 13.3333 79.4919 8.67557 85.9721 8.67557C92.0869 8.67557 96.1961 13.2889 96.1961 19.7156C96.2034 20.3121 96.1497 20.9077 96.0356 21.4933H80.7042C80.8993 22.7454 81.5554 23.8799 82.5443 24.6754C83.5332 25.4709 84.784 25.8703 86.0524 25.7956C87.0608 25.8569 88.0685 25.6643 88.9829 25.2356C89.8972 24.8069 90.6887 24.1558 91.2847 23.3422L94.5381 26.7556C93.552 28.0547 92.265 29.0963 90.7872 29.7914C89.3095 30.4864 87.6849 30.8142 86.0524 30.7467ZM80.7042 17.9111H90.6785C90.5792 16.7127 90.0265 15.5969 89.1327 14.7897C88.2389 13.9826 87.0708 13.5446 85.8652 13.5645C84.6176 13.5161 83.3968 13.934 82.4421 14.7365C81.4874 15.5389 80.8676 16.6679 80.7042 17.9022V17.9111Z" fill="white"/>
<path d="M110.235 9.30664V14.2489H105.778V30.0977H100.145V9.30664H110.235Z" fill="white"/>
<path d="M113.818 0H119.452V25.2H123.802V30.0978H113.818V0Z" fill="white"/>
<path d="M136.718 30.7467C130.121 30.7467 125.531 26.0978 125.531 19.7156C125.531 13.3333 130.157 8.66667 136.673 8.66667C142.788 8.66667 146.897 13.28 146.897 19.7067C146.904 20.3032 146.851 20.8988 146.737 21.4845H131.405C131.6 22.7365 132.256 23.871 133.245 24.6665C134.234 25.462 135.485 25.8614 136.753 25.7867C137.769 25.8538 138.786 25.6622 139.707 25.2299C140.629 24.7977 141.425 24.1389 142.021 23.3156L145.275 26.7289C144.285 28.0437 142.988 29.0971 141.496 29.7974C140.005 30.4977 138.364 30.8236 136.718 30.7467ZM131.369 17.9111H141.344C141.244 16.712 140.69 15.5958 139.794 14.7898C138.898 13.9839 137.728 13.5489 136.521 13.5733C135.277 13.529 134.061 13.9475 133.109 14.7475C132.157 15.5475 131.537 16.6719 131.369 17.9022V17.9111Z" fill="white"/>
<path d="M179.503 30.0977H173.861V16.6133C173.861 15.8211 173.545 15.0615 172.984 14.5014C172.422 13.9413 171.66 13.6266 170.866 13.6266C170.071 13.6266 169.31 13.9413 168.748 14.5014C168.186 15.0615 167.871 15.8211 167.871 16.6133V30.0977H162.237V16.6133C162.252 16.2119 162.184 15.8119 162.038 15.4377C161.892 15.0635 161.67 14.7231 161.387 14.4374C161.104 14.1518 160.766 13.927 160.392 13.7769C160.019 13.6267 159.618 13.5544 159.216 13.5644C158.819 13.5615 158.426 13.6393 158.061 13.7931C157.695 13.9469 157.365 14.1735 157.091 14.4589C156.816 14.7443 156.603 15.0826 156.464 15.453C156.325 15.8234 156.264 16.2182 156.283 16.6133V30.0977H150.65V16.6933C150.65 11.9555 154.429 8.69325 159.216 8.69325C160.349 8.64583 161.478 8.8621 162.513 9.32494C163.548 9.78778 164.461 10.4845 165.179 11.3599C165.92 10.4933 166.848 9.80374 167.892 9.3422C168.936 8.88066 170.072 8.65889 171.213 8.69325C176.045 8.69325 179.548 11.9821 179.548 16.6933L179.503 30.0977Z" fill="white"/>
<path d="M201.743 14.5688C200.962 13.401 199.901 12.4473 198.655 11.795C197.409 11.1427 196.019 10.8128 194.612 10.8355C189.584 10.8355 185.876 14.6844 185.876 19.8221C185.876 24.9599 189.584 28.8177 194.612 28.8177C196.079 28.8224 197.524 28.4564 198.812 27.7539C200.099 27.0513 201.187 26.0351 201.974 24.7999L203.267 26.0888C202.334 27.5288 201.051 28.7106 199.538 29.5248C198.025 30.339 196.331 30.7592 194.612 30.7466C193.167 30.785 191.731 30.5283 190.39 29.9923C189.049 29.4563 187.832 28.6524 186.814 27.6299C185.796 26.6074 184.999 25.388 184.471 24.0468C183.944 22.7056 183.697 21.2709 183.746 19.831C183.717 18.3981 183.978 16.974 184.513 15.6439C185.048 14.3137 185.847 13.1048 186.861 12.0893C187.875 11.0738 189.084 10.2725 190.416 9.73328C191.748 9.19409 193.175 8.92803 194.612 8.95102C196.269 8.93607 197.905 9.31823 199.384 10.0654C200.862 10.8125 202.139 11.9027 203.106 13.2444L201.743 14.5688Z" fill="white"/>
<path d="M216.807 8.95105C221.264 8.95105 224.695 11.3955 225.658 14.7288H225.738C225.738 14.0088 225.658 13.3244 225.658 12.2755V9.60883H227.592V30.0977H225.658V27.0933C225.658 26.2044 225.703 25.4399 225.738 24.6844H225.658C224.651 28.2933 221.112 30.7022 216.744 30.7377C210.389 30.7377 206.048 26.0444 206.048 19.8222C205.998 18.3931 206.241 16.969 206.762 15.6368C207.283 14.3047 208.071 13.0927 209.079 12.075C210.086 11.0573 211.291 10.2553 212.62 9.7181C213.948 9.18095 215.373 8.91994 216.807 8.95105ZM225.622 19.8222C225.622 14.6844 221.994 10.8355 216.887 10.8355C215.714 10.8287 214.553 11.0586 213.471 11.5113C212.39 11.9641 211.412 12.6303 210.596 13.4699C209.78 14.3095 209.143 15.3051 208.723 16.3968C208.302 17.4885 208.108 18.6536 208.152 19.8222C208.108 20.9918 208.303 22.1582 208.723 23.2509C209.144 24.3437 209.782 25.3403 210.599 26.1807C211.416 27.0211 212.395 27.688 213.477 28.1412C214.559 28.5944 215.722 28.8245 216.896 28.8177C221.994 28.8177 225.622 24.9599 225.622 19.8222Z" fill="white"/>
<path d="M245.419 30.7467C241.275 30.7467 237.7 28.6223 236.613 25.1734H236.488C236.58 25.973 236.621 26.7775 236.613 27.5823V39.3334H234.518V9.59116H236.488V12.2578C236.495 13.0505 236.456 13.8429 236.372 14.6312H236.488C237.7 11.2623 241.239 8.93338 245.544 8.93338C251.623 8.93338 256.125 13.5823 256.125 19.8045C256.125 26.0267 251.579 30.7467 245.419 30.7467ZM236.506 19.8223C236.506 25.0045 240.169 28.8178 245.232 28.8178C246.406 28.8272 247.57 28.5988 248.653 28.1463C249.736 27.6939 250.715 27.027 251.532 26.1859C252.349 25.3448 252.986 24.3471 253.405 23.2532C253.823 22.1594 254.015 20.9921 253.968 19.8223C254.011 18.6538 253.817 17.4886 253.397 16.3969C252.976 15.3052 252.339 14.3096 251.523 13.47C250.707 12.6304 249.729 11.9642 248.648 11.5114C247.567 11.0587 246.405 10.8288 245.232 10.8356C240.152 10.8356 236.506 14.6845 236.506 19.8223Z" fill="white"/>
<path d="M260.876 3.73335C260.874 3.44756 260.957 3.16765 261.115 2.92883C261.272 2.69001 261.497 2.50296 261.76 2.3912C262.024 2.27944 262.315 2.24796 262.597 2.30073C262.879 2.3535 263.138 2.48816 263.343 2.68777C263.548 2.88738 263.69 3.14302 263.75 3.42253C263.809 3.70204 263.785 3.99293 263.679 4.25862C263.574 4.5243 263.392 4.7529 263.156 4.91567C262.921 5.07843 262.642 5.16808 262.355 5.17335C262.161 5.18458 261.967 5.1553 261.784 5.08738C261.602 5.01947 261.436 4.9144 261.297 4.7789C261.158 4.6434 261.048 4.48043 260.976 4.3004C260.903 4.12038 260.869 3.92725 260.876 3.73335ZM261.277 30.0978V9.59113H263.372V30.0978H261.277Z" fill="white"/>
<path d="M270.814 11.44H268.238V9.59112H270.814V4.0089H272.909V9.59112H279.906V11.44H272.909V28.2133H279.291V30.0978H270.797L270.814 11.44Z" fill="white"/>
<path d="M292.751 8.95102C297.208 8.95102 300.64 11.3955 301.602 14.7288H301.682C301.638 14.0088 301.602 13.3244 301.602 12.2755V9.6088H303.536V30.0977H301.575V27.0932C301.575 26.2044 301.575 25.4399 301.656 24.6844H301.575C300.568 28.2932 297.03 30.7021 292.662 30.7377C286.306 30.7377 281.965 26.0444 281.965 19.8221C281.915 18.3908 282.159 16.9644 282.682 15.6304C283.204 14.2965 283.995 13.0832 285.005 12.0651C286.015 11.0469 287.223 10.2455 288.555 9.71001C289.887 9.17451 291.315 8.91622 292.751 8.95102ZM301.575 19.8221C301.575 14.6844 297.957 10.8355 292.849 10.8355C291.676 10.8287 290.515 11.0586 289.434 11.5113C288.352 11.9641 287.374 12.6303 286.558 13.4699C285.742 14.3095 285.105 15.3051 284.685 16.3968C284.265 17.4885 284.07 18.6536 284.114 19.8221C284.069 20.9914 284.262 22.1575 284.682 23.2502C285.102 24.343 285.739 25.3396 286.555 26.1802C287.371 27.0208 288.35 27.6878 289.431 28.1411C290.513 28.5944 291.676 28.8245 292.849 28.8177C297.939 28.8177 301.575 24.9599 301.575 19.8221Z" fill="white"/>
<path d="M310.418 0H312.504V28.2133H319.189V30.0978H310.418V0Z" fill="white"/>
<path d="M5.80279 14.9245H0V20.6845H5.80279V14.9245Z" fill="white"/>
<path d="M15.2691 24.3023H9.46631V30.0623H15.2691V24.3023Z" fill="white"/>
<path d="M5.80279 24.3023H0V30.0623H5.80279V24.3023Z" fill="white"/>
<path d="M15.2691 14.9245H9.46631V20.6845H15.2691V14.9245Z" fill="white"/>
</svg>
