<svg width="16" height="16" viewBox="0 0 16 16" fill="none" xmlns="http://www.w3.org/2000/svg">
<path fill-rule="evenodd" clip-rule="evenodd" d="M11.5286 0.195262C11.6536 0.0702379 11.8232 0 12 0H15.3333C15.7015 0 16 0.298477 16 0.666667V3.33333C16 3.51014 15.9298 3.67971 15.8047 3.80474L13.8047 5.80474C13.6797 5.92976 13.5101 6 13.3333 6H12V7.33333C12 7.51014 11.9298 7.67971 11.8047 7.80474L10.4472 9.16224C10.5882 9.63785 10.6667 10.1422 10.6667 10.6667C10.6667 13.6122 8.27886 16 5.33333 16C2.38781 16 0 13.6122 0 10.6667C0 7.72114 2.38781 5.33333 5.33333 5.33333C5.66569 5.33333 5.988 5.36641 6.29869 5.42516L11.5286 0.195262ZM12.2761 1.33333L6.98207 6.6274C6.8146 6.79488 6.57085 6.86092 6.34173 6.80091C6.01407 6.71508 5.67764 6.66667 5.33333 6.66667C3.12419 6.66667 1.33333 8.45752 1.33333 10.6667C1.33333 12.8758 3.12419 14.6667 5.33333 14.6667C7.54248 14.6667 9.33333 12.8758 9.33333 10.6667C9.33333 10.1599 9.23508 9.67521 9.06083 9.22433C8.96571 8.97822 9.02469 8.69917 9.21126 8.5126L10.6667 7.05719V5.33333C10.6667 4.96514 10.9651 4.66667 11.3333 4.66667H13.0572L14.6667 3.05719V1.33333H12.2761Z" fill="#DCDCDC"/>
<path fill-rule="evenodd" clip-rule="evenodd" d="M5.33331 10C4.96512 10 4.66665 10.2985 4.66665 10.6667C4.66665 11.0349 4.96512 11.3334 5.33331 11.3334C5.7015 11.3334 5.99998 11.0349 5.99998 10.6667C5.99998 10.2985 5.7015 10 5.33331 10ZM3.33331 10.6667C3.33331 9.56212 4.22874 8.66669 5.33331 8.66669C6.43788 8.66669 7.33331 9.56212 7.33331 10.6667C7.33331 11.7713 6.43788 12.6667 5.33331 12.6667C4.22874 12.6667 3.33331 11.7713 3.33331 10.6667Z" fill="#DCDCDC"/>
</svg>
