<svg width="16" height="16" viewBox="0 0 16 16" fill="none" xmlns="http://www.w3.org/2000/svg">
<path fill-rule="evenodd" clip-rule="evenodd" d="M0.666656 8.00016C0.666656 7.63197 0.965133 7.3335 1.33332 7.3335H14.6667C15.0348 7.3335 15.3333 7.63197 15.3333 8.00016C15.3333 8.36835 15.0348 8.66683 14.6667 8.66683H1.33332C0.965133 8.66683 0.666656 8.36835 0.666656 8.00016Z" fill="#808080"/>
<path fill-rule="evenodd" clip-rule="evenodd" d="M6.47139 2.86201C6.73174 3.12236 6.73174 3.54447 6.47139 3.80482L2.27613 8.00008L6.47139 12.1953C6.73174 12.4557 6.73174 12.8778 6.47139 13.1382C6.21105 13.3985 5.78893 13.3985 5.52859 13.1382L0.861919 8.47149C0.601569 8.21114 0.601569 7.78903 0.861919 7.52868L5.52859 2.86201C5.78893 2.60166 6.21105 2.60166 6.47139 2.86201Z" fill="#808080"/>
</svg>
