<svg width="16" height="16" viewBox="0 0 16 16" fill="none" xmlns="http://www.w3.org/2000/svg">
<path fill-rule="evenodd" clip-rule="evenodd" d="M15.138 0.86201C15.3984 1.12236 15.3984 1.54447 15.138 1.80482L7.8047 9.13815C7.54435 9.3985 7.12224 9.3985 6.86189 9.13815C6.60154 8.8778 6.60154 8.45569 6.86189 8.19534L14.1952 0.86201C14.4556 0.601661 14.8777 0.601661 15.138 0.86201Z" fill="white"/>
<path fill-rule="evenodd" clip-rule="evenodd" d="M15.1381 0.862029C15.3219 1.0459 15.3821 1.3199 15.2922 1.5639L10.6255 14.2306C10.5336 14.48 10.3023 14.651 10.0369 14.6657C9.7714 14.6804 9.52259 14.536 9.4037 14.2982L6.83641 9.16367L1.70184 6.59639C1.46405 6.47749 1.31964 6.22868 1.33434 5.96323C1.34904 5.69778 1.52005 5.46645 1.76951 5.37454L14.4362 0.707872C14.6802 0.617977 14.9542 0.678157 15.1381 0.862029ZM3.67639 6.09295L7.63146 8.07048C7.76048 8.13499 7.86509 8.23961 7.9296 8.36862L9.90714 12.3237L13.5417 2.45835L3.67639 6.09295Z" fill="white"/>
</svg>
